Coordinates
version=1
nRows=5
nColumns=63
inDegrees=yes

Units are S.I. units (second, meters, Newtons, ...)
If the header above contains a line with 'inDegrees', this indicates whether rotational values are in degrees (yes) or radians (no).

endheader
time	pelvis_tilt	pelvis_list	pelvis_rotation	pelvis_tx	pelvis_ty	pelvis_tz	hip_flexion_r	hip_adduction_r	hip_rotation_r	knee_angle_r	knee_angle_r_beta	ankle_angle_r	subtalar_angle_r	mtp_angle_r	hip_flexion_l	hip_adduction_l	hip_rotation_l	knee_angle_l	knee_angle_l_beta	ankle_angle_l	subtalar_angle_l	mtp_angle_l	L5_S1_Flex_Ext	L5_S1_Lat_Bending	L5_S1_axial_rotation	L4_L5_Flex_Ext	L4_L5_Lat_Bending	L4_L5_axial_rotation	L3_L4_Flex_Ext	L3_L4_Lat_Bending	L3_L4_axial_rotation	L2_L3_Flex_Ext	L2_L3_Lat_Bending	L2_L3_axial_rotation	L1_L2_Flex_Ext	L1_L2_Lat_Bending	L1_L2_axial_rotation	L1_T12_Flex_Ext	L1_T12_Lat_Bending	L1_T12_axial_rotation	Abs_r3	Abs_r2	Abs_r1	Abs_t1	Abs_t2	neck_flexion	neck_bending	neck_rotation	arm_flex_r	arm_add_r	arm_rot_r	elbow_flex_r	pro_sup_r	wrist_flex_r	wrist_dev_r	arm_flex_l	arm_add_l	arm_rot_l	elbow_flex_l	pro_sup_l	wrist_flex_l	wrist_dev_l
      0.70909091	     -5.42694527	     -6.07187075	     87.15220671	      0.22027444	      0.72413170	      0.79925927	      9.17626795	     -5.47606647	      8.98920774	      6.98128254	      0.12184637	     21.88432353	      6.93830855	      0.00000000	      6.21737061	      3.92783418	    -15.80856517	      3.54564989	      0.06188326	     16.79404290	     13.01613860	      0.00000000	     -0.05374854	     -0.96336161	      1.19108170	     -0.09981642	     -1.28127094	      1.26552431	     -0.08830348	     -2.34231741	      1.26552431	     -0.06142921	     -2.34231741	      1.04219649	     -0.04991090	     -1.96448699	      0.96775388	     -0.03071192	     -1.49224713	      0.89331127	     -0.38392047	    -10.89773917	      6.62443909	      0.00000000	      0.00000000	     26.61740187	      6.59496876	    -25.46745090	     39.34566159	     -5.17848486	     26.71669955	    138.15026690	     88.36840154	    -10.74301228	     13.77993604	     27.07058841	    -11.63705612	     90.04545615	     31.20625578	     88.95454024	    -29.42826748	     -5.01643921
      0.72727273	     -5.56527416	     -6.10926551	     87.18550230	      0.22052550	      0.72452910	      0.79971055	      9.30228719	     -5.59157920	      9.10250795	      7.08221339	      0.12360794	     21.57742655	      6.64720359	      0.00000000	      6.32668538	      4.03486986	    -15.90607062	      3.57287446	      0.06235842	     16.66083479	     13.19678985	      0.00000000	     -0.08265017	     -0.98805586	      1.02546520	     -0.15348963	     -1.31411430	      1.08955678	     -0.13578596	     -2.40235903	      1.08955678	     -0.09446088	     -2.40235903	      0.89728205	     -0.07674895	     -2.01484352	      0.83319048	     -0.04722631	     -1.53049853	      0.76909890	     -0.59036189	    -11.17708553	      5.70332982	      0.00000000	      0.00000000	     26.67653854	      8.33771822	    -24.20228701	     39.72376501	     -4.14634262	     28.07207458	    141.19587347	     88.15043619	    -10.74222431	     16.04433594	     27.26386293	    -11.98672711	     90.83464511	     31.02496166	     89.00435970	    -30.95928763	     -6.09667031
      0.74545455	     -5.54728343	     -6.15162973	     87.12170522	      0.22038186	      0.72465121	      0.80010943	      9.38918638	     -5.55282578	      9.32729869	      7.08679684	      0.12368794	     21.18505584	      6.19961323	      0.00000000	      6.44676767	      4.00361382	    -16.09354545	      3.69772161	      0.06453742	     16.60333271	     13.25907205	      0.00000000	     -0.10881343	     -0.97671402	      0.87788153	     -0.20207742	     -1.29902965	      0.93274912	     -0.17876958	     -2.37478248	      0.93274912	     -0.12436287	     -2.37478248	      0.76814633	     -0.10104415	     -1.99171524	      0.71327874	     -0.06217599	     -1.51293002	      0.65841114	     -0.77724345	    -11.04878438	      4.88251368	      0.00000000	      0.00000000	     26.66402092	      8.99546850	    -22.66377425	     40.20539758	     -3.10953872	     29.33437200	    143.69113011	     88.06736966	    -11.80752156	     19.71556818	     27.10328398	    -12.01971100	     91.14622394	     30.44952953	     89.00978133	    -33.64906676	     -7.38183722
      0.76363636	     -5.53441900	     -6.17301916	     86.98417941	      0.22033147	      0.72480393	      0.80058990	      9.49140149	     -5.52923481	      9.36075893	      7.13742765	      0.12457161	     20.92104015	      6.23508882	      0.00000000	      6.48272455	      3.97961050	    -16.11368902	      3.74439912	      0.06535209	     16.46011787	     13.23941980	      0.00000000	     -0.14036907	     -0.97377650	      0.84780014	     -0.26067941	     -1.29512275	      0.90078765	     -0.23061235	     -2.36764019	      0.90078765	     -0.16042782	     -2.36764019	      0.74182512	     -0.13034672	     -1.98572504	      0.68883761	     -0.08020689	     -1.50837980	      0.63585010	     -1.00264226	    -11.01555455	      4.71521002	      0.00000000	      0.00000000	     26.53284504	      9.04865563	    -22.54294164	     40.32277867	     -2.59853318	     29.58837484	    144.94571502	     88.07463799	    -11.78755629	     19.62010583	     27.22144871	    -12.03264789	     91.11710451	     30.41129137	     89.00267218	    -33.73755337	     -7.41525448
      0.78181818	     -5.46922900	     -6.32519330	     86.88786088	      0.22038313	      0.72460382	      0.80092577	      9.73105974	     -5.43575897	      9.27649766	      7.22219676	      0.12605111	     20.78887630	      6.37156521	      0.00000000	      6.71552471	      3.89565414	    -15.31498560	      3.95452083	      0.06901941	     16.17715098	     12.02007790	      0.00000000	     -0.14549053	     -0.96212681	      0.74054533	     -0.27019046	     -1.27962866	      0.78682942	     -0.23902639	     -2.33931513	      0.78682942	     -0.16628113	     -2.33931513	      0.64797717	     -0.13510251	     -1.96196899	      0.60169308	     -0.08313329	     -1.49033443	      0.55540900	     -1.03922430	    -10.88377090	      4.11869097	      0.00000000	      0.00000000	     26.71848219	      9.75503177	    -21.54686006	     40.66111013	     -1.83390162	     30.10752269	    146.03514654	     88.42093967	    -14.30076770	     22.20743481	     26.63304184	    -12.49612865	     89.58063249	     30.78356720	     88.98889951	    -35.73483996	     -8.11383502
